<svg xmlns="http://www.w3.org/2000/svg" width="42" height="40" viewBox="0 0 42 40">
  <defs>
    <style>
      .cls-1 {
        fill-rule: evenodd;
      }
    </style>
  </defs>
  <path id="item-fencing.svg" class="cls-1" d="M634,811.743v-11.87h42v11.87H634Zm8.375-10.349-5.32,8.828h4.661l5.32-8.828h-4.661Zm12.58,0-5.321,8.828H654.7l5.321-8.828h-5.062Zm12.981,0-5.321,8.828h4.862l5.32-8.828h-4.861Zm3.553-4.214h-1.854v1.845h-3.609V797.18h-1.754a2.751,2.751,0,0,1-2.757-2.744v-2.693A2.75,2.75,0,0,1,664.272,789h7.217a2.75,2.75,0,0,1,2.757,2.743v2.693A2.751,2.751,0,0,1,671.489,797.18Zm1-5.337a1,1,0,0,0-1-1h-7.217a1,1,0,0,0-1,1v2.593a1,1,0,0,0,1,1h7.217a1,1,0,0,0,1-1v-2.593Zm-26.514,5.337h-1.854v1.845h-3.609V797.18h-1.754a2.75,2.75,0,0,1-2.756-2.744v-2.693A2.75,2.75,0,0,1,638.761,789h7.217a2.75,2.75,0,0,1,2.757,2.743v2.693A2.751,2.751,0,0,1,645.978,797.18Zm1-5.337a1,1,0,0,0-1-1h-7.217a1,1,0,0,0-1,1v2.593a1,1,0,0,0,1,1h7.217a1,1,0,0,0,1-1v-2.593Zm-2.055,28.08h20.3v-7.382h5.313V829h-5.313v-3.691h-20.3V829h-5.313V812.541h5.313v7.382Z" transform="translate(-634 -789)"/>
</svg>
