<svg xmlns="http://www.w3.org/2000/svg" width="42" height="40" viewBox="0 0 42 40">
  <metadata><?xpacket begin="﻿" id="W5M0MpCehiHzreSzNTczkc9d"?>
<x:xmpmeta xmlns:x="adobe:ns:meta/" x:xmptk="Adobe XMP Core 5.6-c138 79.159824, 2016/09/14-01:09:01        ">
   <rdf:RDF xmlns:rdf="http://www.w3.org/1999/02/22-rdf-syntax-ns#">
      <rdf:Description rdf:about=""/>
   </rdf:RDF>
</x:xmpmeta>
                                                                                                    
                                                                                                    
                                                                                                    
                                                                                                    
                                                                                                    
                                                                                                    
                                                                                                    
                                                                                                    
                                                                                                    
                                                                                                    
                                                                                                    
                                                                                                    
                                                                                                    
                                                                                                    
                                                                                                    
                                                                                                    
                                                                                                    
                                                                                                    
                                                                                                    
                                                                                                    
                           
<?xpacket end="w"?></metadata>
<defs>
    <style>
      .cls-1 {
        fill-rule: evenodd;
      }
    </style>
  </defs>
  <path id="Rectangle_1_copy" data-name="Rectangle 1 copy" class="cls-1" d="M149.166,816.411l-9.6,9.534-4.921-4.888,9.663-9.6Zm10.741-10.669-2.685,2.668-4.932-4.878,2.7-2.677Zm11.915-7.107L162.211,789l-5.251.044-2.981,2.917-0.133,5.26,9.7,9.68h5.339L172,803.807Zm-3.051,26c0.071,0.053-3.89-5.452-3.89-5.452l-4.583.132-1.691,4.022s3.674,5.683,3.675,5.625c-0.243.022-.49,0.033-0.739,0.033a8.115,8.115,0,0,1-8.142-8.088,8.013,8.013,0,0,1,.586-3.018l-12.9-12.819A8.153,8.153,0,0,1,130,797.531a8.012,8.012,0,0,1,.9-3.71c0.8,1.174,3.9,5.787,3.9,5.787l4.539-.177,1.735-4.332s-3-4.193-4.037-5.583a8.225,8.225,0,0,1,1.1-.074,8.116,8.116,0,0,1,8.143,8.089,8.029,8.029,0,0,1-.409,2.535L159.1,813.2a8.2,8.2,0,0,1,2.447-.372,8.116,8.116,0,0,1,8.143,8.089A8.005,8.005,0,0,1,168.771,824.64Z" transform="translate(-130 -789)"/>
</svg>
