<svg xmlns="http://www.w3.org/2000/svg" width="31" height="40" viewBox="0 0 31 40">
  <defs>
    <style>
      .cls-1 {
        fill-rule: evenodd;
      }
    </style>
  </defs>
  <path id="item-workman.svg" class="cls-1" d="M923,827h-30.99c-0.042-3.485.173-9.5,2.018-11.626,0.757-.874,1.487-2.2,6.6-1.789a23.069,23.069,0,0,0,2-2.132c0.56,1.11,2.531,1.932,4.883,1.943v-0.013c2.353-.01,4.324-0.834,4.883-1.945a23.019,23.019,0,0,0,2,2.134c5.11-.414,5.839.916,6.6,1.791C922.822,817.5,923.037,823.512,923,827Zm-7.329-26.525a2.351,2.351,0,0,1,.882,1.837v0.424a2.356,2.356,0,0,1-2.1,2.342c-0.629,3.432-2.921,6.751-6.99,6.751-4.095,0-6.478-3.217-7-6.814a2.356,2.356,0,0,1-1.759-2.279v-0.424a2.348,2.348,0,0,1,.882-1.837h16.093Zm-0.232-1.461h-17.45V796.14h1.308a8.374,8.374,0,0,1,5.1-6.083v6.036a1.649,1.649,0,0,0,1.649,1.649h3.2a1.649,1.649,0,0,0,1.649-1.649v-6.084c2.6,0.915,4.023,3.049,4.943,6.131H917.3v2.874h-1.868Zm-6.142-2.261h-3.44a0.707,0.707,0,0,1-.706-0.707v-8.339a0.706,0.706,0,0,1,.706-0.707h3.44a0.707,0.707,0,0,1,.707.707v8.339A0.708,0.708,0,0,1,909.292,796.753Z" transform="translate(-892 -787)"/>
</svg>
