<svg xmlns="http://www.w3.org/2000/svg" width="46" height="40" viewBox="0 0 46 40">
  <metadata><?xpacket begin="﻿" id="W5M0MpCehiHzreSzNTczkc9d"?>
<x:xmpmeta xmlns:x="adobe:ns:meta/" x:xmptk="Adobe XMP Core 5.6-c138 79.159824, 2016/09/14-01:09:01        ">
   <rdf:RDF xmlns:rdf="http://www.w3.org/1999/02/22-rdf-syntax-ns#">
      <rdf:Description rdf:about=""/>
   </rdf:RDF>
</x:xmpmeta>
                                                                                                    
                                                                                                    
                                                                                                    
                                                                                                    
                                                                                                    
                                                                                                    
                                                                                                    
                                                                                                    
                                                                                                    
                                                                                                    
                                                                                                    
                                                                                                    
                                                                                                    
                                                                                                    
                                                                                                    
                                                                                                    
                                                                                                    
                                                                                                    
                                                                                                    
                                                                                                    
                           
<?xpacket end="w"?></metadata>
<defs>
    <style>
      .cls-1 {
        fill-rule: evenodd;
      }
    </style>
  </defs>
  <path class="cls-1" d="M424.019,829L421,824.651l-3.177-.051-3.351,4.4H405.9l6.972-12.351,1.927,0.82,3.229-4.77,2.656,0.769L427,829h-2.982Zm-21.928-6.709,1.615-2.872-8.749-4.874,2.083,6.361L395.555,829h-3.328l1.376-7.017-2.292-6.155-2.5.051-0.886,5.8L385.366,829h-3.444l2.411-7.222,0.469-9.438-3.8-1.026,0.1-6.207,4.739-4.155,2.292,0.205,1.813-1.575a4.043,4.043,0,0,1-2.022-3.452,3.828,3.828,0,0,1,.074-0.746l8.721,0.957a4.211,4.211,0,0,1-3.577,3.821l0.511,1.508,2.864,0.154,0.833,7.541,1.2,4.052-2.812-1.488-0.573-1.744-0.521-3.744L393.6,810.39l0.521,1.847,10.363,5.9,1.51-2.718,3.8,2.051-3.906,6.823Zm-17.029-16.466-1.562,1.436v1.744l1.718,0.411Zm2.244-11.5a5.337,5.337,0,1,1,10.671.194,5.782,5.782,0,0,1-.076.928Zm33.169,31.151,2.5,3.529h-7.695l3.009-3.529h2.188Z" transform="translate(-381 -789)"/>
</svg>
