<svg xmlns="http://www.w3.org/2000/svg" width="47" height="36" viewBox="0 0 47 36">
  <metadata><?xpacket begin="﻿" id="W5M0MpCehiHzreSzNTczkc9d"?>
<x:xmpmeta xmlns:x="adobe:ns:meta/" x:xmptk="Adobe XMP Core 5.6-c138 79.159824, 2016/09/14-01:09:01        ">
   <rdf:RDF xmlns:rdf="http://www.w3.org/1999/02/22-rdf-syntax-ns#">
      <rdf:Description rdf:about=""/>
   </rdf:RDF>
</x:xmpmeta>
                                                                                                    
                                                                                                    
                                                                                                    
                                                                                                    
                                                                                                    
                                                                                                    
                                                                                                    
                                                                                                    
                                                                                                    
                                                                                                    
                                                                                                    
                                                                                                    
                                                                                                    
                                                                                                    
                                                                                                    
                                                                                                    
                                                                                                    
                                                                                                    
                                                                                                    
                                                                                                    
                           
<?xpacket end="w"?></metadata>
<defs>
    <style>
      .cls-1 {
        fill: #fff;
        fill-rule: evenodd;
      }
    </style>
  </defs>
  <path id="truck_icon" class="cls-1" d="M175.535,2281.82H172.5c-1.692.05-1.836,0.69-2.019,0.8-3.539-4.32-7.424-3.15-8.269-3.03a11.4,11.4,0,0,1,0-2.74v-9.15h12.35l3.57,5.35v8.77h-2.6Zm0-8.77-1.786-2.89h-4.98l0,2.89v3.8h6.769v-3.8Zm-15-7.06v1.71h0v12.25c-1.906.42-3.6,3.01-4.2,5.19h-6.163c-1.308-3.94-6.493-6.89-15.79-9.25v-4.88H132v-3.31h24.547l2.364-4.92h18.573l-2.137,3.21H160.536Zm-5.464.03H141.909v0.02h-7.093l2.826-2.51h1.976l1.1-1.27v-0.02h0.017l0.978-1.12h2.846l3.462-4.12h3.393l1.743,3.26h2.8l0.893,2.09h0.008Zm-12.811,15.59a5.7,5.7,0,1,1-5.767,5.69A5.731,5.731,0,0,1,142.261,2281.61Zm0.081,7.27a1.765,1.765,0,1,0-1.787-1.76A1.775,1.775,0,0,0,142.342,2288.88Zm21.736-7.29a5.705,5.705,0,1,1-5.766,5.71A5.741,5.741,0,0,1,164.078,2281.59Zm0.078,3.97a1.72,1.72,0,1,1-1.75,1.72A1.735,1.735,0,0,1,164.156,2285.56Zm8.906-2.09h4.25a1.685,1.685,0,1,1,0,3.37h-4.25A1.685,1.685,0,1,1,173.062,2283.47Z" transform="translate(-132 -2257)"/>
</svg>
