<svg xmlns="http://www.w3.org/2000/svg" width="31" height="24" viewBox="0 0 31 24">
  <metadata><?xpacket begin="﻿" id="W5M0MpCehiHzreSzNTczkc9d"?>
<x:xmpmeta xmlns:x="adobe:ns:meta/" x:xmptk="Adobe XMP Core 5.6-c138 79.159824, 2016/09/14-01:09:01        ">
   <rdf:RDF xmlns:rdf="http://www.w3.org/1999/02/22-rdf-syntax-ns#">
      <rdf:Description rdf:about=""/>
   </rdf:RDF>
</x:xmpmeta>
                                                                                                    
                                                                                                    
                                                                                                    
                                                                                                    
                                                                                                    
                                                                                                    
                                                                                                    
                                                                                                    
                                                                                                    
                                                                                                    
                                                                                                    
                                                                                                    
                                                                                                    
                                                                                                    
                                                                                                    
                                                                                                    
                                                                                                    
                                                                                                    
                                                                                                    
                                                                                                    
                           
<?xpacket end="w"?></metadata>
<defs>
    <style>
      .cls-1 {
        fill-rule: evenodd;
      }
    </style>
  </defs>
  <path id="truck_icon_copy" data-name="truck_icon copy" class="cls-1" d="M163.286,322.547h2a1.425,1.425,0,0,1,1.332.535,5.1,5.1,0,0,1,5.453-2.024,7.67,7.67,0,0,0,0-1.828v-6.1h-8.145l-2.355,3.566v5.849h1.715Zm0-5.849,1.177-1.925h3.285l0,1.925v2.532h-4.464V316.7Zm9.892-4.707v1.141h0V321.3c1.258,0.278,2.378,2.007,2.771,3.459h4.065c0.863-2.625,4.283-4.589,10.415-6.165v-3.25H192v-2.211H175.809l-1.559-3.281H162l1.409,2.14h9.769Zm3.6,0.025h8.682v0.011h4.679l-1.865-1.676h-1.3l-0.725-.843V309.5h-0.012l-0.644-.749h-1.878L181.433,306H179.2l-1.149,2.175H176.2l-0.589,1.391h0Zm8.45,10.388a3.8,3.8,0,1,0,3.8,3.8A3.8,3.8,0,0,0,185.232,322.4Zm-0.053,4.85a1.177,1.177,0,1,1,1.178-1.177A1.178,1.178,0,0,1,185.179,327.254ZM170.842,322.4a3.8,3.8,0,1,0,3.8,3.8A3.8,3.8,0,0,0,170.842,322.4Zm-0.051,2.646a1.146,1.146,0,1,0,1.154,1.146A1.15,1.15,0,0,0,170.791,325.042Zm-5.875-1.4h-2.8a1.125,1.125,0,0,0,0,2.25h2.8A1.125,1.125,0,0,0,164.916,323.646Z" transform="translate(-161 -306)"/>
</svg>
